<svg xmlns="http://www.w3.org/2000/svg" width="311.22" height="68.61" viewBox="0 0 311.22 68.61"><title>logo</title><g data-name="Layer 3"><path d="M76 49.94a3.52 3.52 0 0 1-1 2.49L59.24 68.2a1.41 1.41 0 0 1-2.4-1V31.87L75.82 13H76z" fill="#e34b5f"/><path d="M63.46.41a1.41 1.41 0 0 0-2 0L38 23.86h-.33v26.46L38 51l18.84-18.8L76 13z" fill="#e7ce9c"/><path d="M0 49.94a3.52 3.52 0 0 0 1 2.49L16.8 68.2a1.41 1.41 0 0 0 2.4-1V31.87L.22 13H0z" fill="#1e7889"/><path d="M14.57.41a1.41 1.41 0 0 0-2 0L0 13l19.2 19.2L38 51V23.86z" fill="#97baa6"/><path d="M99.64 49.94V14.69H109v4.73a10.43 10.43 0 0 1 9.61-5.42 10.73 10.73 0 0 1 9.78 5.65c3.68-3.87 6.5-5.65 10.9-5.65 7.94 0 12.41 4.46 12.41 12.67v23.27h-10.11v-19.1c0-4.92-1.05-7.16-4.92-7.16s-6 2.43-6 7.16v19.1h-10.22v-19.1c0-4.92-1.05-7.16-4.92-7.16s-6 2.43-6 7.16v19.1zM164.17 19.29A18.61 18.61 0 0 1 196 32.09a18 18 0 0 1-5.32 13.26 18.28 18.28 0 0 1-13.39 5.51A17.42 17.42 0 0 1 164 45.22a18.42 18.42 0 0 1-5.19-13 18.07 18.07 0 0 1 5.36-12.93zM177.37 41a8.51 8.51 0 0 0 8.34-8.67 8.35 8.35 0 1 0-16.67 0 8.55 8.55 0 0 0 8.33 8.67zM203.11 49.94V14.69H213l-.13 4.73c2.13-3.55 5.4-5.42 10.06-5.42 7.29 0 12 4.6 12 12.67v23.27h-10.36v-19.1c0-4.92-1.05-7.16-5.05-7.16s-6.24 2.43-6.24 7.16v19.1zM279.38 19.29a18.61 18.61 0 0 1 31.84 12.8 18 18 0 0 1-5.32 13.26 18.28 18.28 0 0 1-13.39 5.51 17.42 17.42 0 0 1-13.33-5.65 18.42 18.42 0 0 1-5.19-13 18.07 18.07 0 0 1 5.39-12.92zM292.58 41a8.51 8.51 0 0 0 8.34-8.67 8.35 8.35 0 1 0-16.67 0 8.55 8.55 0 0 0 8.33 8.67zM242.74 49.94v-7.35l14.51-18.77h-14.51v-9.13h26.19V23l-12.8 17.79h13.07v9.12z" fill="#fff"/></g></svg>